<mxfile host="app.diagrams.net" modified="2021-10-09T18:07:30.951Z" agent="5.0 (Windows NT 10.0; Win64; x64) AppleWebKit/537.36 (KHTML, like Gecko) Chrome/94.0.4606.81 Safari/537.36" etag="0FccVukyYYAqwhFAAbRE" version="15.2.7" type="github">
  <diagram id="AVvSf5fjR2B4NAV7niSB" name="Page-1">
    <mxGraphModel dx="868" dy="450" grid="1" gridSize="10" guides="1" tooltips="1" connect="1" arrows="1" fold="1" page="1" pageScale="1" pageWidth="827" pageHeight="1169" math="0" shadow="0">
      <root>
        <mxCell id="0" />
        <mxCell id="1" parent="0" />
        <mxCell id="MTTNjmgKQSDkIYzu223h-17" style="edgeStyle=orthogonalEdgeStyle;rounded=0;orthogonalLoop=1;jettySize=auto;html=1;exitX=0;exitY=0.5;exitDx=0;exitDy=0;entryX=0.5;entryY=1;entryDx=0;entryDy=0;" edge="1" parent="1" source="MTTNjmgKQSDkIYzu223h-1" target="MTTNjmgKQSDkIYzu223h-14">
          <mxGeometry relative="1" as="geometry" />
        </mxCell>
        <mxCell id="MTTNjmgKQSDkIYzu223h-18" style="edgeStyle=orthogonalEdgeStyle;rounded=0;orthogonalLoop=1;jettySize=auto;html=1;exitX=0.5;exitY=0;exitDx=0;exitDy=0;entryX=0;entryY=0.5;entryDx=0;entryDy=0;" edge="1" parent="1" source="MTTNjmgKQSDkIYzu223h-1" target="MTTNjmgKQSDkIYzu223h-7">
          <mxGeometry relative="1" as="geometry" />
        </mxCell>
        <mxCell id="MTTNjmgKQSDkIYzu223h-19" style="edgeStyle=orthogonalEdgeStyle;rounded=0;orthogonalLoop=1;jettySize=auto;html=1;exitX=1;exitY=0.5;exitDx=0;exitDy=0;entryX=0;entryY=0.5;entryDx=0;entryDy=0;" edge="1" parent="1" source="MTTNjmgKQSDkIYzu223h-1" target="MTTNjmgKQSDkIYzu223h-10">
          <mxGeometry relative="1" as="geometry" />
        </mxCell>
        <mxCell id="MTTNjmgKQSDkIYzu223h-20" style="edgeStyle=orthogonalEdgeStyle;rounded=0;orthogonalLoop=1;jettySize=auto;html=1;exitX=0.5;exitY=1;exitDx=0;exitDy=0;entryX=0.5;entryY=0;entryDx=0;entryDy=0;" edge="1" parent="1" source="MTTNjmgKQSDkIYzu223h-1" target="MTTNjmgKQSDkIYzu223h-9">
          <mxGeometry relative="1" as="geometry" />
        </mxCell>
        <mxCell id="MTTNjmgKQSDkIYzu223h-21" style="edgeStyle=orthogonalEdgeStyle;rounded=0;orthogonalLoop=1;jettySize=auto;html=1;exitX=0.5;exitY=1;exitDx=0;exitDy=0;entryX=0.5;entryY=0;entryDx=0;entryDy=0;" edge="1" parent="1" source="MTTNjmgKQSDkIYzu223h-1" target="MTTNjmgKQSDkIYzu223h-12">
          <mxGeometry relative="1" as="geometry" />
        </mxCell>
        <mxCell id="MTTNjmgKQSDkIYzu223h-1" value="usuarios" style="whiteSpace=wrap;html=1;align=center;fillColor=#f8cecc;strokeColor=#b85450;" vertex="1" parent="1">
          <mxGeometry x="180" y="120" width="100" height="40" as="geometry" />
        </mxCell>
        <mxCell id="MTTNjmgKQSDkIYzu223h-42" style="edgeStyle=orthogonalEdgeStyle;rounded=0;orthogonalLoop=1;jettySize=auto;html=1;exitX=0;exitY=0.5;exitDx=0;exitDy=0;entryX=0.5;entryY=1;entryDx=0;entryDy=0;" edge="1" parent="1" source="MTTNjmgKQSDkIYzu223h-2" target="MTTNjmgKQSDkIYzu223h-39">
          <mxGeometry relative="1" as="geometry" />
        </mxCell>
        <mxCell id="MTTNjmgKQSDkIYzu223h-43" style="edgeStyle=orthogonalEdgeStyle;rounded=0;orthogonalLoop=1;jettySize=auto;html=1;exitX=1;exitY=0.5;exitDx=0;exitDy=0;" edge="1" parent="1" source="MTTNjmgKQSDkIYzu223h-2">
          <mxGeometry relative="1" as="geometry">
            <mxPoint x="700" y="441" as="targetPoint" />
          </mxGeometry>
        </mxCell>
        <mxCell id="MTTNjmgKQSDkIYzu223h-44" style="edgeStyle=orthogonalEdgeStyle;rounded=0;orthogonalLoop=1;jettySize=auto;html=1;exitX=0.5;exitY=1;exitDx=0;exitDy=0;entryX=0.5;entryY=0;entryDx=0;entryDy=0;" edge="1" parent="1" source="MTTNjmgKQSDkIYzu223h-2" target="MTTNjmgKQSDkIYzu223h-41">
          <mxGeometry relative="1" as="geometry" />
        </mxCell>
        <mxCell id="MTTNjmgKQSDkIYzu223h-2" value="categorias" style="whiteSpace=wrap;html=1;align=center;fillColor=#f8cecc;strokeColor=#b85450;" vertex="1" parent="1">
          <mxGeometry x="620" y="490" width="100" height="40" as="geometry" />
        </mxCell>
        <mxCell id="MTTNjmgKQSDkIYzu223h-27" style="edgeStyle=orthogonalEdgeStyle;rounded=0;orthogonalLoop=1;jettySize=auto;html=1;exitX=0;exitY=0.5;exitDx=0;exitDy=0;entryX=1;entryY=0.5;entryDx=0;entryDy=0;" edge="1" parent="1" source="MTTNjmgKQSDkIYzu223h-3" target="MTTNjmgKQSDkIYzu223h-15">
          <mxGeometry relative="1" as="geometry" />
        </mxCell>
        <mxCell id="MTTNjmgKQSDkIYzu223h-28" style="edgeStyle=orthogonalEdgeStyle;rounded=0;orthogonalLoop=1;jettySize=auto;html=1;exitX=0;exitY=0.5;exitDx=0;exitDy=0;entryX=0.5;entryY=1;entryDx=0;entryDy=0;" edge="1" parent="1" source="MTTNjmgKQSDkIYzu223h-3" target="MTTNjmgKQSDkIYzu223h-11">
          <mxGeometry relative="1" as="geometry" />
        </mxCell>
        <mxCell id="MTTNjmgKQSDkIYzu223h-30" style="edgeStyle=orthogonalEdgeStyle;rounded=0;orthogonalLoop=1;jettySize=auto;html=1;entryX=0.5;entryY=1;entryDx=0;entryDy=0;" edge="1" parent="1" source="MTTNjmgKQSDkIYzu223h-3" target="MTTNjmgKQSDkIYzu223h-13">
          <mxGeometry relative="1" as="geometry" />
        </mxCell>
        <mxCell id="MTTNjmgKQSDkIYzu223h-32" style="edgeStyle=orthogonalEdgeStyle;rounded=0;orthogonalLoop=1;jettySize=auto;html=1;exitX=0.5;exitY=1;exitDx=0;exitDy=0;" edge="1" parent="1" source="MTTNjmgKQSDkIYzu223h-3" target="MTTNjmgKQSDkIYzu223h-31">
          <mxGeometry relative="1" as="geometry" />
        </mxCell>
        <mxCell id="MTTNjmgKQSDkIYzu223h-63" style="edgeStyle=orthogonalEdgeStyle;rounded=0;orthogonalLoop=1;jettySize=auto;html=1;exitX=0.5;exitY=1;exitDx=0;exitDy=0;entryX=0.58;entryY=0.05;entryDx=0;entryDy=0;entryPerimeter=0;" edge="1" parent="1" source="MTTNjmgKQSDkIYzu223h-3" target="MTTNjmgKQSDkIYzu223h-24">
          <mxGeometry relative="1" as="geometry" />
        </mxCell>
        <mxCell id="MTTNjmgKQSDkIYzu223h-3" value="posts" style="whiteSpace=wrap;html=1;align=center;fillColor=#f8cecc;strokeColor=#b85450;" vertex="1" parent="1">
          <mxGeometry x="180" y="490" width="100" height="40" as="geometry" />
        </mxCell>
        <mxCell id="MTTNjmgKQSDkIYzu223h-34" style="edgeStyle=orthogonalEdgeStyle;rounded=0;orthogonalLoop=1;jettySize=auto;html=1;exitX=0;exitY=0.5;exitDx=0;exitDy=0;entryX=0.5;entryY=1;entryDx=0;entryDy=0;" edge="1" parent="1" source="MTTNjmgKQSDkIYzu223h-4" target="MTTNjmgKQSDkIYzu223h-33">
          <mxGeometry relative="1" as="geometry" />
        </mxCell>
        <mxCell id="MTTNjmgKQSDkIYzu223h-35" style="edgeStyle=orthogonalEdgeStyle;rounded=0;orthogonalLoop=1;jettySize=auto;html=1;exitX=0.5;exitY=0;exitDx=0;exitDy=0;entryX=0.5;entryY=1;entryDx=0;entryDy=0;" edge="1" parent="1" source="MTTNjmgKQSDkIYzu223h-4" target="MTTNjmgKQSDkIYzu223h-8">
          <mxGeometry relative="1" as="geometry" />
        </mxCell>
        <mxCell id="MTTNjmgKQSDkIYzu223h-36" style="edgeStyle=orthogonalEdgeStyle;rounded=0;orthogonalLoop=1;jettySize=auto;html=1;exitX=1;exitY=0.5;exitDx=0;exitDy=0;entryX=0.5;entryY=1;entryDx=0;entryDy=0;" edge="1" parent="1" source="MTTNjmgKQSDkIYzu223h-4" target="MTTNjmgKQSDkIYzu223h-23">
          <mxGeometry relative="1" as="geometry" />
        </mxCell>
        <mxCell id="MTTNjmgKQSDkIYzu223h-37" style="edgeStyle=orthogonalEdgeStyle;rounded=0;orthogonalLoop=1;jettySize=auto;html=1;exitX=0.5;exitY=1;exitDx=0;exitDy=0;entryX=0.5;entryY=0;entryDx=0;entryDy=0;" edge="1" parent="1" source="MTTNjmgKQSDkIYzu223h-4" target="MTTNjmgKQSDkIYzu223h-25">
          <mxGeometry relative="1" as="geometry" />
        </mxCell>
        <mxCell id="MTTNjmgKQSDkIYzu223h-38" style="edgeStyle=orthogonalEdgeStyle;rounded=0;orthogonalLoop=1;jettySize=auto;html=1;exitX=0.5;exitY=1;exitDx=0;exitDy=0;" edge="1" parent="1" source="MTTNjmgKQSDkIYzu223h-4" target="MTTNjmgKQSDkIYzu223h-22">
          <mxGeometry relative="1" as="geometry" />
        </mxCell>
        <mxCell id="MTTNjmgKQSDkIYzu223h-4" value="comnetarios" style="whiteSpace=wrap;html=1;align=center;fillColor=#f8cecc;strokeColor=#b85450;" vertex="1" parent="1">
          <mxGeometry x="600" y="160" width="100" height="40" as="geometry" />
        </mxCell>
        <mxCell id="MTTNjmgKQSDkIYzu223h-5" value="etiquetas" style="whiteSpace=wrap;html=1;align=center;fillColor=#f8cecc;strokeColor=#b85450;" vertex="1" parent="1">
          <mxGeometry x="440" y="660" width="100" height="40" as="geometry" />
        </mxCell>
        <mxCell id="MTTNjmgKQSDkIYzu223h-7" value="apodo" style="ellipse;whiteSpace=wrap;html=1;align=center;fillColor=#ffe6cc;strokeColor=#d79b00;" vertex="1" parent="1">
          <mxGeometry x="280" y="40" width="100" height="40" as="geometry" />
        </mxCell>
        <mxCell id="MTTNjmgKQSDkIYzu223h-8" value="id_usuario" style="ellipse;whiteSpace=wrap;html=1;align=center;fillColor=#ffe6cc;strokeColor=#d79b00;" vertex="1" parent="1">
          <mxGeometry x="600" y="50" width="100" height="40" as="geometry" />
        </mxCell>
        <mxCell id="MTTNjmgKQSDkIYzu223h-9" value="email" style="ellipse;whiteSpace=wrap;html=1;align=center;fillColor=#ffe6cc;strokeColor=#d79b00;" vertex="1" parent="1">
          <mxGeometry x="120" y="210" width="100" height="40" as="geometry" />
        </mxCell>
        <mxCell id="MTTNjmgKQSDkIYzu223h-10" value="password" style="ellipse;whiteSpace=wrap;html=1;align=center;fillColor=#ffe6cc;strokeColor=#d79b00;" vertex="1" parent="1">
          <mxGeometry x="330" y="120" width="100" height="40" as="geometry" />
        </mxCell>
        <mxCell id="MTTNjmgKQSDkIYzu223h-11" value="titulo" style="ellipse;whiteSpace=wrap;html=1;align=center;fillColor=#ffe6cc;strokeColor=#d79b00;" vertex="1" parent="1">
          <mxGeometry x="70" y="445" width="100" height="40" as="geometry" />
        </mxCell>
        <mxCell id="MTTNjmgKQSDkIYzu223h-12" value="login" style="ellipse;whiteSpace=wrap;html=1;align=center;fillColor=#ffe6cc;strokeColor=#d79b00;" vertex="1" parent="1">
          <mxGeometry x="260" y="210" width="100" height="40" as="geometry" />
        </mxCell>
        <mxCell id="MTTNjmgKQSDkIYzu223h-13" value="contenido" style="ellipse;whiteSpace=wrap;html=1;align=center;fillColor=#ffe6cc;strokeColor=#d79b00;" vertex="1" parent="1">
          <mxGeometry x="360" y="430" width="100" height="40" as="geometry" />
        </mxCell>
        <mxCell id="MTTNjmgKQSDkIYzu223h-14" value="id_user" style="ellipse;whiteSpace=wrap;html=1;align=center;fontStyle=4;fillColor=#d5e8d4;strokeColor=#82b366;" vertex="1" parent="1">
          <mxGeometry x="60" y="70" width="100" height="40" as="geometry" />
        </mxCell>
        <mxCell id="MTTNjmgKQSDkIYzu223h-15" value="id" style="ellipse;whiteSpace=wrap;html=1;align=center;fontStyle=4;fillColor=#d5e8d4;strokeColor=#82b366;" vertex="1" parent="1">
          <mxGeometry x="20" y="535" width="100" height="40" as="geometry" />
        </mxCell>
        <mxCell id="MTTNjmgKQSDkIYzu223h-22" value="id_posts" style="ellipse;whiteSpace=wrap;html=1;align=center;fillColor=#ffe6cc;strokeColor=#d79b00;" vertex="1" parent="1">
          <mxGeometry x="500" y="240" width="100" height="40" as="geometry" />
        </mxCell>
        <mxCell id="MTTNjmgKQSDkIYzu223h-23" value="fecha_coment" style="ellipse;whiteSpace=wrap;html=1;align=center;fillColor=#ffe6cc;strokeColor=#d79b00;" vertex="1" parent="1">
          <mxGeometry x="710" y="110" width="100" height="40" as="geometry" />
        </mxCell>
        <mxCell id="MTTNjmgKQSDkIYzu223h-24" value="status" style="ellipse;whiteSpace=wrap;html=1;align=center;fillColor=#ffe6cc;strokeColor=#d79b00;" vertex="1" parent="1">
          <mxGeometry x="110" y="610" width="100" height="40" as="geometry" />
        </mxCell>
        <mxCell id="MTTNjmgKQSDkIYzu223h-25" value="contenido" style="ellipse;whiteSpace=wrap;html=1;align=center;fillColor=#ffe6cc;strokeColor=#d79b00;" vertex="1" parent="1">
          <mxGeometry x="680" y="250" width="100" height="40" as="geometry" />
        </mxCell>
        <mxCell id="MTTNjmgKQSDkIYzu223h-31" value="fecha_publicacion" style="ellipse;whiteSpace=wrap;html=1;align=center;fillColor=#ffe6cc;strokeColor=#d79b00;" vertex="1" parent="1">
          <mxGeometry x="275" y="610" width="100" height="40" as="geometry" />
        </mxCell>
        <mxCell id="MTTNjmgKQSDkIYzu223h-33" value="id_coment" style="ellipse;whiteSpace=wrap;html=1;align=center;fontStyle=4;fillColor=#d5e8d4;strokeColor=#82b366;" vertex="1" parent="1">
          <mxGeometry x="480" y="90" width="100" height="40" as="geometry" />
        </mxCell>
        <mxCell id="MTTNjmgKQSDkIYzu223h-39" value="id" style="ellipse;whiteSpace=wrap;html=1;align=center;fontStyle=4;fillColor=#d5e8d4;strokeColor=#82b366;" vertex="1" parent="1">
          <mxGeometry x="500" y="430" width="100" height="40" as="geometry" />
        </mxCell>
        <mxCell id="MTTNjmgKQSDkIYzu223h-40" value="tipo" style="ellipse;whiteSpace=wrap;html=1;align=center;fillColor=#ffe6cc;strokeColor=#d79b00;" vertex="1" parent="1">
          <mxGeometry x="650" y="400" width="100" height="40" as="geometry" />
        </mxCell>
        <mxCell id="MTTNjmgKQSDkIYzu223h-41" value="list_post" style="ellipse;whiteSpace=wrap;html=1;align=center;fillColor=#ffe6cc;strokeColor=#d79b00;" vertex="1" parent="1">
          <mxGeometry x="640" y="580" width="100" height="40" as="geometry" />
        </mxCell>
        <mxCell id="MTTNjmgKQSDkIYzu223h-46" value="escribe" style="shape=rhombus;perimeter=rhombusPerimeter;whiteSpace=wrap;html=1;align=center;fillColor=#e1d5e7;strokeColor=#9673a6;" vertex="1" parent="1">
          <mxGeometry x="400" y="170" width="90" height="50" as="geometry" />
        </mxCell>
        <mxCell id="MTTNjmgKQSDkIYzu223h-50" value="" style="endArrow=none;html=1;rounded=0;exitX=0.5;exitY=1;exitDx=0;exitDy=0;entryX=0;entryY=0.5;entryDx=0;entryDy=0;" edge="1" parent="1" source="MTTNjmgKQSDkIYzu223h-1" target="MTTNjmgKQSDkIYzu223h-46">
          <mxGeometry relative="1" as="geometry">
            <mxPoint x="220" y="180" as="sourcePoint" />
            <mxPoint x="380" y="180" as="targetPoint" />
          </mxGeometry>
        </mxCell>
        <mxCell id="MTTNjmgKQSDkIYzu223h-51" value="1" style="resizable=0;html=1;align=right;verticalAlign=bottom;" connectable="0" vertex="1" parent="MTTNjmgKQSDkIYzu223h-50">
          <mxGeometry x="1" relative="1" as="geometry" />
        </mxCell>
        <mxCell id="MTTNjmgKQSDkIYzu223h-56" value="" style="endArrow=none;html=1;rounded=0;exitX=0;exitY=0.5;exitDx=0;exitDy=0;entryX=1;entryY=0.5;entryDx=0;entryDy=0;" edge="1" parent="1" source="MTTNjmgKQSDkIYzu223h-4" target="MTTNjmgKQSDkIYzu223h-46">
          <mxGeometry relative="1" as="geometry">
            <mxPoint x="330" y="190" as="sourcePoint" />
            <mxPoint x="500" y="190" as="targetPoint" />
          </mxGeometry>
        </mxCell>
        <mxCell id="MTTNjmgKQSDkIYzu223h-57" value="N" style="resizable=0;html=1;align=right;verticalAlign=bottom;" connectable="0" vertex="1" parent="MTTNjmgKQSDkIYzu223h-56">
          <mxGeometry x="1" relative="1" as="geometry" />
        </mxCell>
        <mxCell id="MTTNjmgKQSDkIYzu223h-58" value="escribe" style="shape=rhombus;perimeter=rhombusPerimeter;whiteSpace=wrap;html=1;align=center;fillColor=#e1d5e7;strokeColor=#9673a6;" vertex="1" parent="1">
          <mxGeometry x="185" y="310" width="90" height="50" as="geometry" />
        </mxCell>
        <mxCell id="MTTNjmgKQSDkIYzu223h-59" value="" style="endArrow=none;html=1;rounded=0;exitX=0.5;exitY=1;exitDx=0;exitDy=0;entryX=0.5;entryY=0;entryDx=0;entryDy=0;" edge="1" parent="1" source="MTTNjmgKQSDkIYzu223h-1" target="MTTNjmgKQSDkIYzu223h-58">
          <mxGeometry relative="1" as="geometry">
            <mxPoint x="230" y="269.5" as="sourcePoint" />
            <mxPoint x="390" y="269.5" as="targetPoint" />
          </mxGeometry>
        </mxCell>
        <mxCell id="MTTNjmgKQSDkIYzu223h-60" value="1" style="resizable=0;html=1;align=right;verticalAlign=bottom;" connectable="0" vertex="1" parent="MTTNjmgKQSDkIYzu223h-59">
          <mxGeometry x="1" relative="1" as="geometry" />
        </mxCell>
        <mxCell id="MTTNjmgKQSDkIYzu223h-61" value="" style="endArrow=none;html=1;rounded=0;entryX=0.5;entryY=1;entryDx=0;entryDy=0;exitX=0.5;exitY=0;exitDx=0;exitDy=0;" edge="1" parent="1" source="MTTNjmgKQSDkIYzu223h-3" target="MTTNjmgKQSDkIYzu223h-58">
          <mxGeometry relative="1" as="geometry">
            <mxPoint x="350" y="410" as="sourcePoint" />
            <mxPoint x="510" y="410" as="targetPoint" />
          </mxGeometry>
        </mxCell>
        <mxCell id="MTTNjmgKQSDkIYzu223h-62" value="N" style="resizable=0;html=1;align=right;verticalAlign=bottom;" connectable="0" vertex="1" parent="MTTNjmgKQSDkIYzu223h-61">
          <mxGeometry x="1" relative="1" as="geometry" />
        </mxCell>
        <mxCell id="MTTNjmgKQSDkIYzu223h-64" value="tiene" style="shape=rhombus;perimeter=rhombusPerimeter;whiteSpace=wrap;html=1;align=center;fillColor=#e1d5e7;strokeColor=#9673a6;" vertex="1" parent="1">
          <mxGeometry x="440" y="330" width="90" height="50" as="geometry" />
        </mxCell>
        <mxCell id="MTTNjmgKQSDkIYzu223h-66" value="" style="endArrow=none;html=1;rounded=0;exitX=1;exitY=0.5;exitDx=0;exitDy=0;entryX=0;entryY=0.5;entryDx=0;entryDy=0;" edge="1" parent="1" source="MTTNjmgKQSDkIYzu223h-3" target="MTTNjmgKQSDkIYzu223h-64">
          <mxGeometry relative="1" as="geometry">
            <mxPoint x="350" y="310" as="sourcePoint" />
            <mxPoint x="510" y="310" as="targetPoint" />
          </mxGeometry>
        </mxCell>
        <mxCell id="MTTNjmgKQSDkIYzu223h-67" value="1" style="resizable=0;html=1;align=right;verticalAlign=bottom;" connectable="0" vertex="1" parent="MTTNjmgKQSDkIYzu223h-66">
          <mxGeometry x="1" relative="1" as="geometry" />
        </mxCell>
        <mxCell id="MTTNjmgKQSDkIYzu223h-68" value="" style="endArrow=none;html=1;rounded=0;entryX=1;entryY=0.5;entryDx=0;entryDy=0;exitX=0.5;exitY=1;exitDx=0;exitDy=0;" edge="1" parent="1" source="MTTNjmgKQSDkIYzu223h-4" target="MTTNjmgKQSDkIYzu223h-64">
          <mxGeometry relative="1" as="geometry">
            <mxPoint x="350" y="310" as="sourcePoint" />
            <mxPoint x="510" y="310" as="targetPoint" />
          </mxGeometry>
        </mxCell>
        <mxCell id="MTTNjmgKQSDkIYzu223h-69" value="N" style="resizable=0;html=1;align=right;verticalAlign=bottom;" connectable="0" vertex="1" parent="MTTNjmgKQSDkIYzu223h-68">
          <mxGeometry x="1" relative="1" as="geometry" />
        </mxCell>
        <mxCell id="MTTNjmgKQSDkIYzu223h-71" value="tiene" style="shape=rhombus;perimeter=rhombusPerimeter;whiteSpace=wrap;html=1;align=center;fillColor=#e1d5e7;strokeColor=#9673a6;" vertex="1" parent="1">
          <mxGeometry x="430" y="485" width="90" height="50" as="geometry" />
        </mxCell>
        <mxCell id="MTTNjmgKQSDkIYzu223h-73" value="" style="endArrow=none;html=1;rounded=0;exitX=0;exitY=0.5;exitDx=0;exitDy=0;entryX=1;entryY=0.5;entryDx=0;entryDy=0;" edge="1" parent="1" source="MTTNjmgKQSDkIYzu223h-2" target="MTTNjmgKQSDkIYzu223h-71">
          <mxGeometry relative="1" as="geometry">
            <mxPoint x="350" y="510" as="sourcePoint" />
            <mxPoint x="520" y="510" as="targetPoint" />
          </mxGeometry>
        </mxCell>
        <mxCell id="MTTNjmgKQSDkIYzu223h-74" value="1" style="resizable=0;html=1;align=right;verticalAlign=bottom;" connectable="0" vertex="1" parent="MTTNjmgKQSDkIYzu223h-73">
          <mxGeometry x="1" relative="1" as="geometry" />
        </mxCell>
        <mxCell id="MTTNjmgKQSDkIYzu223h-75" value="" style="endArrow=none;html=1;rounded=0;exitX=1;exitY=0.5;exitDx=0;exitDy=0;entryX=0;entryY=0.5;entryDx=0;entryDy=0;" edge="1" parent="1" source="MTTNjmgKQSDkIYzu223h-3" target="MTTNjmgKQSDkIYzu223h-71">
          <mxGeometry relative="1" as="geometry">
            <mxPoint x="290" y="520" as="sourcePoint" />
            <mxPoint x="420" y="540" as="targetPoint" />
          </mxGeometry>
        </mxCell>
        <mxCell id="MTTNjmgKQSDkIYzu223h-76" value="N" style="resizable=0;html=1;align=right;verticalAlign=bottom;" connectable="0" vertex="1" parent="MTTNjmgKQSDkIYzu223h-75">
          <mxGeometry x="1" relative="1" as="geometry" />
        </mxCell>
        <mxCell id="MTTNjmgKQSDkIYzu223h-77" value="tiene" style="shape=rhombus;perimeter=rhombusPerimeter;whiteSpace=wrap;html=1;align=center;fillColor=#e1d5e7;strokeColor=#9673a6;" vertex="1" parent="1">
          <mxGeometry x="445" y="585" width="90" height="50" as="geometry" />
        </mxCell>
        <mxCell id="MTTNjmgKQSDkIYzu223h-80" value="" style="endArrow=none;html=1;rounded=0;exitX=0.5;exitY=1;exitDx=0;exitDy=0;entryX=0.5;entryY=0;entryDx=0;entryDy=0;" edge="1" parent="1" source="MTTNjmgKQSDkIYzu223h-3" target="MTTNjmgKQSDkIYzu223h-77">
          <mxGeometry relative="1" as="geometry">
            <mxPoint x="300" y="554.5" as="sourcePoint" />
            <mxPoint x="460" y="554.5" as="targetPoint" />
          </mxGeometry>
        </mxCell>
        <mxCell id="MTTNjmgKQSDkIYzu223h-81" value="N" style="resizable=0;html=1;align=right;verticalAlign=bottom;" connectable="0" vertex="1" parent="MTTNjmgKQSDkIYzu223h-80">
          <mxGeometry x="1" relative="1" as="geometry" />
        </mxCell>
        <mxCell id="MTTNjmgKQSDkIYzu223h-82" value="" style="endArrow=none;html=1;rounded=0;entryX=0.5;entryY=1;entryDx=0;entryDy=0;exitX=0.5;exitY=0;exitDx=0;exitDy=0;" edge="1" parent="1" source="MTTNjmgKQSDkIYzu223h-5" target="MTTNjmgKQSDkIYzu223h-77">
          <mxGeometry relative="1" as="geometry">
            <mxPoint x="350" y="510" as="sourcePoint" />
            <mxPoint x="510" y="510" as="targetPoint" />
          </mxGeometry>
        </mxCell>
        <mxCell id="MTTNjmgKQSDkIYzu223h-83" value="N" style="resizable=0;html=1;align=right;verticalAlign=bottom;" connectable="0" vertex="1" parent="MTTNjmgKQSDkIYzu223h-82">
          <mxGeometry x="1" relative="1" as="geometry" />
        </mxCell>
      </root>
    </mxGraphModel>
  </diagram>
</mxfile>
